<svg id="visual" viewBox="0 0 675 900" width="675" height="900" xmlns="http://www.w3.org/2000/svg" xmlns:xlink="http://www.w3.org/1999/xlink" version="1.1"><path d="M0 64L16 80.5C32 97 64 130 96.2 152.5C128.3 175 160.7 187 192.8 197.5C225 208 257 217 289.2 196C321.3 175 353.7 124 385.8 106C418 88 450 103 482.2 107.5C514.3 112 546.7 106 578.8 119.5C611 133 643 166 659 182.5L675 199L675 0L659 0C643 0 611 0 578.8 0C546.7 0 514.3 0 482.2 0C450 0 418 0 385.8 0C353.7 0 321.3 0 289.2 0C257 0 225 0 192.8 0C160.7 0 128.3 0 96.2 0C64 0 32 0 16 0L0 0Z" fill="#f0fcfd"></path><path d="M0 91L16 109C32 127 64 163 96.2 188.5C128.3 214 160.7 229 192.8 238C225 247 257 250 289.2 223C321.3 196 353.7 139 385.8 131.5C418 124 450 166 482.2 170.5C514.3 175 546.7 142 578.8 152.5C611 163 643 217 659 244L675 271L675 197L659 180.5C643 164 611 131 578.8 117.5C546.7 104 514.3 110 482.2 105.5C450 101 418 86 385.8 104C353.7 122 321.3 173 289.2 194C257 215 225 206 192.8 195.5C160.7 185 128.3 173 96.2 150.5C64 128 32 95 16 78.5L0 62Z" fill="#eafbfc"></path><path d="M0 136L16 173.5C32 211 64 286 96.2 311.5C128.3 337 160.7 313 192.8 322C225 331 257 373 289.2 370C321.3 367 353.7 319 385.8 301C418 283 450 295 482.2 280C514.3 265 546.7 223 578.8 229C611 235 643 289 659 316L675 343L675 269L659 242C643 215 611 161 578.8 150.5C546.7 140 514.3 173 482.2 168.5C450 164 418 122 385.8 129.5C353.7 137 321.3 194 289.2 221C257 248 225 245 192.8 236C160.7 227 128.3 212 96.2 186.5C64 161 32 125 16 107L0 89Z" fill="#ddf9fa"></path><path d="M0 253L16 275.5C32 298 64 343 96.2 359.5C128.3 376 160.7 364 192.8 382C225 400 257 448 289.2 449.5C321.3 451 353.7 406 385.8 383.5C418 361 450 361 482.2 346C514.3 331 546.7 301 578.8 313C611 325 643 379 659 406L675 433L675 341L659 314C643 287 611 233 578.8 227C546.7 221 514.3 263 482.2 278C450 293 418 281 385.8 299C353.7 317 321.3 365 289.2 368C257 371 225 329 192.8 320C160.7 311 128.3 335 96.2 309.5C64 284 32 209 16 171.5L0 134Z" fill="#cef6f8"></path><path d="M0 253L16 290.5C32 328 64 403 96.2 437.5C128.3 472 160.7 466 192.8 482.5C225 499 257 538 289.2 535C321.3 532 353.7 487 385.8 467.5C418 448 450 454 482.2 445C514.3 436 546.7 412 578.8 428.5C611 445 643 502 659 530.5L675 559L675 431L659 404C643 377 611 323 578.8 311C546.7 299 514.3 329 482.2 344C450 359 418 359 385.8 381.5C353.7 404 321.3 449 289.2 447.5C257 446 225 398 192.8 380C160.7 362 128.3 374 96.2 357.5C64 341 32 296 16 273.5L0 251Z" fill="#cef6f8"></path><path d="M0 298L16 359.5C32 421 64 544 96.2 602.5C128.3 661 160.7 655 192.8 674.5C225 694 257 739 289.2 710.5C321.3 682 353.7 580 385.8 563.5C418 547 450 616 482.2 650.5C514.3 685 546.7 685 578.8 683.5C611 682 643 679 659 677.5L675 676L675 557L659 528.5C643 500 611 443 578.8 426.5C546.7 410 514.3 434 482.2 443C450 452 418 446 385.8 465.5C353.7 485 321.3 530 289.2 533C257 536 225 497 192.8 480.5C160.7 464 128.3 470 96.2 435.5C64 401 32 326 16 288.5L0 251Z" fill="#ddf9fa"></path><path d="M0 820L16 820C32 820 64 820 96.2 824.5C128.3 829 160.7 838 192.8 845.5C225 853 257 859 289.2 866.5C321.3 874 353.7 883 385.8 880C418 877 450 862 482.2 844C514.3 826 546.7 805 578.8 808C611 811 643 838 659 851.5L675 865L675 674L659 675.5C643 677 611 680 578.8 681.5C546.7 683 514.3 683 482.2 648.5C450 614 418 545 385.8 561.5C353.7 578 321.3 680 289.2 708.5C257 737 225 692 192.8 672.5C160.7 653 128.3 659 96.2 600.5C64 542 32 419 16 357.5L0 296Z" fill="#eafbfc"></path><path d="M0 901L16 901C32 901 64 901 96.2 901C128.3 901 160.7 901 192.8 901C225 901 257 901 289.2 901C321.3 901 353.7 901 385.8 901C418 901 450 901 482.2 901C514.3 901 546.7 901 578.8 901C611 901 643 901 659 901L675 901L675 863L659 849.5C643 836 611 809 578.8 806C546.7 803 514.3 824 482.2 842C450 860 418 875 385.8 878C353.7 881 321.3 872 289.2 864.5C257 857 225 851 192.8 843.5C160.7 836 128.3 827 96.2 822.5C64 818 32 818 16 818L0 818Z" fill="#f0fcfd"></path></svg>