<svg id="visual" viewBox="0 0 900 600" width="900" height="600" xmlns="http://www.w3.org/2000/svg" xmlns:xlink="http://www.w3.org/1999/xlink" version="1.1"><path d="M0 169L13.7 190C27.3 211 54.7 253 82 243C109.3 233 136.7 171 163.8 142C191 113 218 117 245.2 129C272.3 141 299.7 161 327 178C354.3 195 381.7 209 409 201C436.3 193 463.7 163 491 156C518.3 149 545.7 165 573 163C600.3 161 627.7 141 654.8 154C682 167 709 213 736.2 230C763.3 247 790.7 235 818 233C845.3 231 872.7 239 886.3 243L900 247L900 0L886.3 0C872.7 0 845.3 0 818 0C790.7 0 763.3 0 736.2 0C709 0 682 0 654.8 0C627.7 0 600.3 0 573 0C545.7 0 518.3 0 491 0C463.7 0 436.3 0 409 0C381.7 0 354.3 0 327 0C299.7 0 272.3 0 245.2 0C218 0 191 0 163.8 0C136.7 0 109.3 0 82 0C54.7 0 27.3 0 13.7 0L0 0Z" fill="#f0fcfd"></path><path d="M0 223L13.7 252C27.3 281 54.7 339 82 327C109.3 315 136.7 233 163.8 200C191 167 218 183 245.2 203C272.3 223 299.7 247 327 264C354.3 281 381.7 291 409 283C436.3 275 463.7 249 491 251C518.3 253 545.7 283 573 274C600.3 265 627.7 217 654.8 223C682 229 709 289 736.2 306C763.3 323 790.7 297 818 290C845.3 283 872.7 295 886.3 301L900 307L900 245L886.3 241C872.7 237 845.3 229 818 231C790.7 233 763.3 245 736.2 228C709 211 682 165 654.8 152C627.7 139 600.3 159 573 161C545.7 163 518.3 147 491 154C463.7 161 436.3 191 409 199C381.7 207 354.3 193 327 176C299.7 159 272.3 139 245.2 127C218 115 191 111 163.8 140C136.7 169 109.3 231 82 241C54.7 251 27.3 209 13.7 188L0 167Z" fill="#ecfbfd"></path><path d="M0 391L13.7 403C27.3 415 54.7 439 82 420C109.3 401 136.7 339 163.8 317C191 295 218 313 245.2 322C272.3 331 299.7 331 327 349C354.3 367 381.7 403 409 407C436.3 411 463.7 383 491 378C518.3 373 545.7 391 573 371C600.3 351 627.7 293 654.8 297C682 301 709 367 736.2 396C763.3 425 790.7 417 818 406C845.3 395 872.7 381 886.3 374L900 367L900 305L886.3 299C872.7 293 845.3 281 818 288C790.7 295 763.3 321 736.2 304C709 287 682 227 654.8 221C627.7 215 600.3 263 573 272C545.7 281 518.3 251 491 249C463.7 247 436.3 273 409 281C381.7 289 354.3 279 327 262C299.7 245 272.3 221 245.2 201C218 181 191 165 163.8 198C136.7 231 109.3 313 82 325C54.7 337 27.3 279 13.7 250L0 221Z" fill="#e8fbfc"></path><path d="M0 535L13.7 539C27.3 543 54.7 551 82 555C109.3 559 136.7 559 163.8 555C191 551 218 543 245.2 543C272.3 543 299.7 551 327 552C354.3 553 381.7 547 409 537C436.3 527 463.7 513 491 515C518.3 517 545.7 535 573 543C600.3 551 627.7 549 654.8 547C682 545 709 543 736.2 545C763.3 547 790.7 553 818 551C845.3 549 872.7 539 886.3 534L900 529L900 365L886.3 372C872.7 379 845.3 393 818 404C790.7 415 763.3 423 736.2 394C709 365 682 299 654.8 295C627.7 291 600.3 349 573 369C545.7 389 518.3 371 491 376C463.7 381 436.3 409 409 405C381.7 401 354.3 365 327 347C299.7 329 272.3 329 245.2 320C218 311 191 293 163.8 315C136.7 337 109.3 399 82 418C54.7 437 27.3 413 13.7 401L0 389Z" fill="#dbf9fa"></path><path d="M0 601L13.7 601C27.3 601 54.7 601 82 601C109.3 601 136.7 601 163.8 601C191 601 218 601 245.2 601C272.3 601 299.7 601 327 601C354.3 601 381.7 601 409 601C436.3 601 463.7 601 491 601C518.3 601 545.7 601 573 601C600.3 601 627.7 601 654.8 601C682 601 709 601 736.2 601C763.3 601 790.7 601 818 601C845.3 601 872.7 601 886.3 601L900 601L900 527L886.3 532C872.7 537 845.3 547 818 549C790.7 551 763.3 545 736.2 543C709 541 682 543 654.8 545C627.7 547 600.3 549 573 541C545.7 533 518.3 515 491 513C463.7 511 436.3 525 409 535C381.7 545 354.3 551 327 550C299.7 549 272.3 541 245.2 541C218 541 191 549 163.8 553C136.7 557 109.3 557 82 553C54.7 549 27.3 541 13.7 537L0 533Z" fill="#cef6f8"></path></svg>